<?xml version="1.0" encoding="UTF-8" standalone="no"?>
<!-- Created with Inkscape (http://www.inkscape.org/) -->

<svg
   xmlns:dc="http://purl.org/dc/elements/1.1/"
   xmlns:cc="http://creativecommons.org/ns#"
   xmlns:rdf="http://www.w3.org/1999/02/22-rdf-syntax-ns#"
   xmlns:svg="http://www.w3.org/2000/svg"
   xmlns="http://www.w3.org/2000/svg"
   xmlns:sodipodi="http://sodipodi.sourceforge.net/DTD/sodipodi-0.dtd"
   xmlns:inkscape="http://www.inkscape.org/namespaces/inkscape"
   width="210mm"
   height="297mm"
   viewBox="0 0 210 297"
   version="1.1"
   id="svg8"
   inkscape:version="0.92.5 (2060ec1f9f, 2020-04-08)"
   sodipodi:docname="patsplants.svg">
  <defs
     id="defs2" />
  <sodipodi:namedview
     id="base"
     pagecolor="#ffffff"
     bordercolor="#666666"
     borderopacity="1.0"
     inkscape:pageopacity="0.0"
     inkscape:pageshadow="2"
     inkscape:zoom="0.7"
     inkscape:cx="629.30079"
     inkscape:cy="516.02235"
     inkscape:document-units="mm"
     inkscape:current-layer="layer1"
     showgrid="false"
     inkscape:window-width="3840"
     inkscape:window-height="2096"
     inkscape:window-x="0"
     inkscape:window-y="27"
     inkscape:window-maximized="1" />
  <metadata
     id="metadata5">
    <rdf:RDF>
      <cc:Work
         rdf:about="">
        <dc:format>image/svg+xml</dc:format>
        <dc:type
           rdf:resource="http://purl.org/dc/dcmitype/StillImage" />
        <dc:title></dc:title>
      </cc:Work>
    </rdf:RDF>
  </metadata>
  <g
     inkscape:label="Layer 1"
     inkscape:groupmode="layer"
     id="layer1">
    <g
       id="g4018"
       transform="matrix(2.3994277,0,0,2.2677159,-120.47439,-89.857112)">
      <path
         style="fill:#d79154;stroke-width:0.08466666"
         d="m 84.988698,112.19304 c -0.347364,-0.0628 -0.71789,-0.29611 -0.875056,-0.55099 -0.157474,-0.25538 -0.326392,-0.86582 -0.799939,-2.89082 -0.430074,-1.8391 -1.009541,-4.34032 -1.284787,-5.54567 -0.154187,-0.67521 -0.451808,-1.95156 -0.661379,-2.83633 -0.209571,-0.884767 -0.614309,-2.618317 -0.899416,-3.852334 -0.285107,-1.234016 -0.559787,-2.338916 -0.610398,-2.455333 -0.05061,-0.116417 -0.135455,-0.402167 -0.188539,-0.635 L 79.572664,93.00323 78.538313,92.9591 77.503962,92.91497 77.027783,92.451105 C 76.765888,92.19597 76.502652,91.87293 76.442817,91.73323 c -0.08443,-0.197124 -0.09651,-0.769279 -0.05394,-2.555164 0.05303,-2.224579 0.06125,-2.309112 0.247012,-2.54 0.105688,-0.13136 0.233574,-0.344768 0.284192,-0.474241 0.05062,-0.129474 0.195365,-0.288842 0.321662,-0.354153 0.568952,-0.294217 2.776848,-0.727166 4.747344,-0.930913 2.837339,-0.293378 5.289478,-0.335945 13.208,-0.229283 7.786623,0.104886 9.830163,0.171193 12.312803,0.399515 2.76682,0.254456 3.40713,0.46608 3.5693,1.179664 0.0316,0.139017 0.11912,0.346848 0.1945,0.461847 0.11348,0.173109 0.14578,0.581259 0.18769,2.371908 0.0285,1.219536 0.0173,2.255135 -0.0258,2.374487 -0.0955,0.264413 -0.95433,1.151023 -1.2948,1.336696 -0.15889,0.08665 -0.55033,0.155575 -1.04539,0.184076 l -0.79139,0.04556 -0.12083,0.338666 c -0.10937,0.306551 -1.00637,4.057365 -2.14626,8.974665 -0.23749,1.02447 -0.48625,2.09127 -0.55281,2.37067 -0.0666,0.2794 -0.25727,1.09855 -0.4238,1.82033 -1.22877,5.32572 -1.21119,5.27126 -1.78932,5.5456 -0.2818,0.13372 -0.99554,0.1459 -9.212222,0.15718 -4.898715,0.007 -8.980229,-0.001 -9.070031,-0.0173 z m 18.283512,-0.29445 c 0.43173,-0.28288 0.45644,-0.3519 1.09674,-3.06269 0.31118,-1.31744 0.95675,-4.09947 1.28687,-5.54567 0.15413,-0.67522 0.43747,-1.89442 0.62964,-2.70933 0.19218,-0.81492 0.42861,-1.82457 0.52542,-2.24367 0.0968,-0.4191 0.40261,-1.6764 0.67955,-2.794 0.27694,-1.1176 0.52431,-2.15847 0.54971,-2.313045 0.0585,-0.356195 0.26235,-0.438622 1.08461,-0.438622 0.79049,0 0.96146,-0.06812 1.53695,-0.612397 0.72978,-0.690197 0.70776,-0.587477 0.65163,-3.0395 -0.0422,-1.843023 -0.0705,-2.185329 -0.19968,-2.412482 -0.0828,-0.145592 -0.17694,-0.385008 -0.20923,-0.532036 -0.10569,-0.481212 -0.63743,-0.677155 -2.41467,-0.889788 -2.72547,-0.326083 -6.30677,-0.449064 -15.197662,-0.521881 -7.221179,-0.05914 -8.922535,-0.01478 -11.744385,0.306245 -1.552633,0.176633 -3.301306,0.504969 -3.927329,0.737406 -0.231183,0.08584 -0.458033,0.241024 -0.535127,0.36608 -0.0736,0.119393 -0.213429,0.33843 -0.310722,0.486748 -0.164392,0.250605 -0.180836,0.431605 -0.232612,2.560271 -0.06282,2.582603 -0.07987,2.48989 0.575209,3.127561 l 0.390948,0.380561 1.034009,0.0439 c 0.568705,0.02414 1.076613,0.07111 1.128683,0.104373 0.05207,0.03326 0.121195,0.260403 0.15361,0.50476 0.03242,0.244355 0.0901,0.483336 0.128184,0.531066 0.05745,0.072 0.447276,1.651777 1.149607,4.658784 0.06526,0.2794 0.275544,1.17475 0.467303,1.989666 0.191759,0.81491 0.474759,2.03411 0.628889,2.70933 0.333023,1.45892 1.015926,4.4063 1.186833,5.12233 0.06669,0.2794 0.237977,1.0033 0.380638,1.60867 0.142662,0.60537 0.29962,1.20168 0.348798,1.32514 0.116161,0.29162 0.419719,0.57326 0.698111,0.64772 0.121611,0.0325 4.275278,0.0568 9.23037,0.0538 8.334225,-0.005 9.025735,-0.0161 9.229105,-0.14934 z"
         id="path4028"
         inkscape:connector-curvature="0" />
      <path
         style="fill:#d26b0a;stroke-width:0.08466666"
         d="m 87.430533,112.03689 c 0.08238,-0.0215 0.196678,-0.0201 0.254,0.003 0.05732,0.0232 -0.01008,0.0408 -0.149778,0.039 -0.1397,-0.002 -0.1866,-0.0207 -0.104222,-0.0422 z m 0.887389,0.003 c 0.05821,-0.0235 0.153458,-0.0235 0.211666,0 0.05821,0.0235 0.01058,0.0427 -0.105833,0.0427 -0.116417,0 -0.164042,-0.0192 -0.105833,-0.0427 z m 11.006666,0 c 0.05821,-0.0235 0.153458,-0.0235 0.211666,0 0.05821,0.0235 0.01058,0.0427 -0.105833,0.0427 -0.116417,0 -0.164042,-0.0192 -0.105833,-0.0427 z m 0.890612,-0.003 c 0.0824,-0.0215 0.19668,-0.0201 0.254,0.003 0.0573,0.0232 -0.0101,0.0408 -0.14978,0.039 -0.1397,-0.002 -0.1866,-0.0207 -0.10422,-0.0422 z m 10.47589,-19.964993 c 0.25293,-0.256117 0.47893,-0.465667 0.50221,-0.465667 0.0233,0 -0.16461,0.20955 -0.41755,0.465667 -0.25293,0.256116 -0.47893,0.465666 -0.50221,0.465666 -0.0233,0 0.16461,-0.20955 0.41755,-0.465666 z m -33.873076,-0.02117 -0.205259,-0.232833 0.232834,0.205258 c 0.217617,0.191845 0.27166,0.260408 0.205258,0.260408 -0.01517,0 -0.119941,-0.104775 -0.232833,-0.232833 z m -0.31889,-1.883833 c 0,-0.116417 0.01922,-0.164042 0.0427,-0.105834 0.02349,0.05821 0.02349,0.153459 0,0.211667 -0.02349,0.05821 -0.0427,0.01058 -0.0427,-0.105833 z m 34.797996,0 c 0,-0.116417 0.0192,-0.164042 0.0427,-0.105834 0.0235,0.05821 0.0235,0.153459 0,0.211667 -0.0235,0.05821 -0.0427,0.01058 -0.0427,-0.105833 z M 87.831088,88.97853 c -3.265108,-0.134027 -6.37628,-0.631877 -8.674224,-1.388053 -1.184806,-0.389879 -2.163109,-0.838151 -2.163109,-0.991166 0,-0.06067 -0.05235,-0.05328 -0.148166,0.02093 -0.119854,0.09282 -0.117246,0.07851 0.01365,-0.07488 0.089,-0.104294 0.203951,-0.274136 0.255447,-0.377428 0.265446,-0.532432 3.491716,-1.102452 7.583737,-1.3399 1.240541,-0.07199 3.692017,-0.08469 8.593666,-0.04455 8.890891,0.07282 12.472191,0.195798 15.197661,0.521881 1.81889,0.217617 2.32207,0.41002 2.41865,0.924831 0.0307,0.16385 0.0898,0.318876 0.13127,0.344503 0.10838,0.06698 -0.35647,0.435442 -0.78615,0.623139 -0.70887,0.309653 -3.13957,0.73436 -6.29343,1.099626 -2.06997,0.239736 -3.62267,0.340467 -6.646334,0.43118 -1.46685,0.04401 -3.18135,0.116083 -3.81,0.160169 -1.788923,0.125454 -3.96405,0.159857 -5.672667,0.08972 z m 11.895666,-0.752132 c 2.589916,-0.154458 6.139876,-0.538885 6.742496,-0.73015 0.34089,-0.108193 0.21323,-0.723908 -0.19372,-0.93435 -0.34082,-0.176246 -2.14796,-0.274354 -6.294776,-0.341738 -2.747127,-0.04464 -3.412866,-0.07776 -3.525409,-0.175407 -0.120161,-0.104255 -0.245433,-0.101321 -0.935332,0.02191 -0.739152,0.132026 -0.840241,0.132357 -1.401971,0.0046 -0.74657,-0.169804 -1.260107,-0.177637 -1.350914,-0.02061 -0.05354,0.09258 -0.64443,0.137513 -2.823659,0.214706 -1.515774,0.05369 -3.211224,0.133435 -3.767667,0.17721 -1.581189,0.12439 -3.616937,0.354474 -3.827921,0.432639 -0.25834,0.09571 -0.419663,0.449333 -0.281133,0.616251 0.164024,0.197637 1.099391,0.47411 1.604012,0.47411 0.254901,0 0.695178,0.03966 0.978393,0.08813 1.754713,0.300303 11.136212,0.407765 15.077601,0.172708 z M 86.622825,85.37441 c -0.02814,-0.02813 -0.10116,-0.03114 -0.162278,-0.0067 -0.06754,0.02703 -0.04748,0.04709 0.05115,0.05115 0.08925,0.0037 0.139259,-0.01633 0.111125,-0.04447 z"
         id="path4026"
         inkscape:connector-curvature="0" />
      <path
         style="fill:#ab5808;stroke-width:0.08466666"
         d="m 84.688045,111.91216 c -0.512791,-0.22959 -0.532619,-0.28189 -1.214471,-3.20326 -0.12499,-0.53552 -0.335016,-1.43087 -0.466725,-1.98967 -0.210976,-0.89512 -0.465455,-1.99348 -1.020049,-4.40267 -0.08576,-0.37253 -0.388847,-1.66793 -0.673533,-2.878664 -0.284685,-1.210733 -0.596258,-2.544233 -0.692384,-2.963333 -0.334223,-1.457189 -0.592895,-2.454605 -0.658565,-2.539378 -0.03634,-0.04691 -0.09043,-0.218639 -0.120198,-0.381622 -0.03571,-0.195528 -0.02744,-0.254786 0.02433,-0.174196 0.08208,0.127786 0.619732,0.257066 2.799976,0.673269 1.560634,0.297921 3.497293,0.548205 5.757333,0.74405 2.336375,0.20246 8.15868,0.201364 10.625666,-0.002 4.020585,-0.331433 8.520595,-0.996488 8.875915,-1.31177 0.14737,-0.130762 0.15068,-0.127093 0.0652,0.07228 -0.0987,0.230302 -0.48635,1.721843 -0.75874,2.919368 -0.0953,0.4191 -0.40625,1.7526 -0.69093,2.963333 -0.28469,1.210733 -0.58778,2.506133 -0.67353,2.878663 -0.5546,2.40919 -0.80908,3.50755 -1.02005,4.40267 -0.13171,0.5588 -0.34174,1.45415 -0.46673,1.98967 -0.67156,2.8773 -0.69644,2.94553 -1.16179,3.18617 -0.25085,0.12972 -1.03267,0.1424 -9.244845,0.14993 -8.200259,0.008 -8.997891,-0.004 -9.285916,-0.13284 z m 9.32371,-4.39599 c 0,-0.15733 -0.509349,-1.84621 -1.426878,-4.7312 -0.269424,-0.84715 -0.335772,-0.97767 -0.520456,-1.02387 -0.116416,-0.0291 -0.273773,-0.0219 -0.349682,0.016 -0.07591,0.0379 -0.319012,0.4796 -0.540229,0.98154 -1.708727,3.87709 -1.986959,4.54662 -1.918058,4.61552 0.04198,0.042 0.22146,0.0642 0.398851,0.0494 0.312708,-0.0261 0.329799,-0.0447 0.561185,-0.61057 0.131261,-0.32099 0.279257,-0.63255 0.328881,-0.69234 0.06821,-0.0822 0.321391,-0.0969 1.037472,-0.0605 0.520986,0.0266 1.023447,0.0764 1.11658,0.11075 0.123427,0.0455 0.21146,0.2262 0.324726,0.66641 0.181899,0.70696 0.30303,0.85559 0.697322,0.85559 0.237891,0 0.290286,-0.0319 0.290286,-0.17673 z m -2.54,-2.17212 c -0.256117,-0.0173 -0.497287,-0.0629 -0.535934,-0.10117 -0.07256,-0.0719 0.750894,-2.17253 0.883854,-2.2547 0.04108,-0.0254 0.112303,0.0417 0.15827,0.14911 0.171018,0.39957 0.601385,2.10526 0.551535,2.18592 -0.05087,0.0823 -0.127326,0.0838 -1.057725,0.0208 z m 4.598464,2.24301 c 0.131764,-0.0972 0.136657,-0.25465 0.05985,-1.92616 -0.046,-1.00119 -0.101038,-2.07705 -0.1223,-2.3908 -0.04863,-0.71754 0.03974,-0.82654 0.670104,-0.82654 0.596376,0 0.720813,-0.0565 0.719248,-0.32656 -0.0027,-0.45769 -0.01565,-0.46072 -1.703304,-0.39722 -0.855286,0.0322 -1.619792,0.0768 -1.698902,0.0991 -0.19144,0.0541 -0.26867,0.3229 -0.15421,0.53677 0.08104,0.15143 0.174823,0.17253 0.766691,0.17253 h 0.674355 l 0.007,0.3175 c 0.08497,3.82987 0.12989,4.69024 0.24882,4.76544 0.173208,0.10953 0.363057,0.10094 0.532601,-0.0241 z m 5.918681,-0.55278 c 0.41312,-0.18338 0.9664,-0.75425 1.04866,-1.08199 0.094,-0.37465 -0.0332,-1.0603 -0.26049,-1.40375 -0.25308,-0.38243 -0.5915,-0.56886 -1.57963,-0.8702 -0.99852,-0.3045 -1.371689,-0.68967 -1.226938,-1.2664 0.119968,-0.47798 0.324998,-0.60033 1.082018,-0.64571 l 0.70623,-0.0423 0.0259,-0.3116 c 0.0259,-0.31077 0.0249,-0.31176 -0.36643,-0.37044 -0.80814,-0.12119 -1.488596,0.0917 -1.831308,0.57303 -0.23185,0.3256 -0.317502,1.2299 -0.161316,1.70314 0.166711,0.50514 0.730764,0.94359 1.448684,1.12608 0.47455,0.12063 0.69995,0.2311 0.94438,0.46284 0.28297,0.26828 0.32106,0.35163 0.32106,0.70255 0,0.70888 -0.48959,0.9713 -1.61669,0.86655 -0.568707,-0.0529 -0.582339,-0.0495 -0.634382,0.15789 -0.07721,0.30765 0.0055,0.44824 0.320932,0.54524 0.39721,0.12218 1.35295,0.0443 1.77929,-0.1449 z m -15.734713,-0.17095 c 0.02297,-0.0372 0.103095,-0.42769 0.178061,-0.86783 0.206893,-1.21471 0.117873,-1.11312 0.918936,-1.04867 1.53886,0.12383 2.251875,-0.48134 2.256045,-1.91482 0.0016,-0.54598 -0.0301,-0.68851 -0.217242,-0.97712 -0.413548,-0.63779 -1.163279,-0.96599 -2.206645,-0.96599 -0.428047,0 -0.534316,0.0276 -0.569826,0.14816 -0.143701,0.48778 -1.067085,5.54284 -1.024941,5.61104 0.06123,0.0991 0.606084,0.11155 0.665612,0.0152 z m 0.709068,-2.70013 c -0.08592,-0.0225 -0.148167,-0.11902 -0.148167,-0.22983 0,-0.39172 0.334267,-2.02743 0.425888,-2.08405 0.08569,-0.053 0.67894,0.0231 1.019705,0.13076 0.263729,0.0833 0.574823,0.50204 0.595963,0.80215 0.04658,0.66137 -0.0043,0.85833 -0.297422,1.15147 -0.274159,0.27415 -0.315485,0.2874 -0.867834,0.27804 -0.318981,-0.005 -0.646641,-0.0272 -0.728133,-0.0485 z m 11.478475,-1.72226 c -0.02386,-1.13851 -0.08782,-1.43695 -0.307663,-1.43541 -0.449874,0.003 -0.484115,0.31708 -0.170613,1.56425 0.154931,0.61634 0.175729,0.65267 0.353028,0.61669 0.118776,-0.0241 0.13797,-0.13837 0.125248,-0.74553 z m -9.763975,-7.965022 c -2.990523,-0.195882 -5.425126,-0.563279 -7.608532,-1.148178 -0.931145,-0.249439 -1.144578,-0.282522 -1.205203,-0.186814 -0.05865,0.09258 -0.07394,0.08711 -0.07497,-0.02687 -0.0021,-0.235867 -0.164912,-0.278045 -1.259218,-0.326286 l -1.046255,-0.04612 -0.451868,-0.50421 c -0.248527,-0.277316 -0.471693,-0.599461 -0.495924,-0.715878 -0.02423,-0.116416 -0.01683,-1.210764 0.01646,-2.431884 0.05859,-2.149561 0.06658,-2.226278 0.251013,-2.410648 0.104775,-0.104737 0.1905,-0.144412 0.1905,-0.08817 0,0.161844 0.956961,0.602712 2.186487,1.007307 1.809956,0.595595 4.386727,1.064204 7.16918,1.30378 1.366956,0.117698 5.733252,0.117576 7.154333,-1.7e-4 0.582083,-0.04824 2.277533,-0.124975 3.767666,-0.170518 3.993666,-0.122058 6.114106,-0.302237 9.556866,-0.812067 2.52185,-0.373456 3.56148,-0.651884 4.01103,-1.074215 0.36007,-0.338269 0.39749,-0.157573 0.45609,2.202612 0.0297,1.195902 0.0235,2.251311 -0.0138,2.345352 -0.10053,0.25358 -1.1041,1.206354 -1.37919,1.309383 -0.13109,0.0491 -0.52412,0.08927 -0.8734,0.08927 -0.68576,0 -0.96184,0.09179 -0.96389,0.320478 -10e-4,0.116605 -0.016,0.121979 -0.0759,0.0273 -0.0621,-0.09808 -0.23615,-0.07375 -1.03587,0.144838 -2.31245,0.632056 -4.64909,0.983115 -7.988552,1.200206 -1.497343,0.09734 -8.762973,0.09136 -10.287,-0.0085 z m -1.312333,-6.217742 c -1.210734,-0.064 -2.433055,-0.156017 -2.716269,-0.204487 -0.283215,-0.04847 -0.723492,-0.08813 -0.978393,-0.08813 -0.504621,0 -1.439988,-0.276473 -1.604012,-0.474109 -0.13853,-0.166918 0.02279,-0.520543 0.281133,-0.616252 0.210984,-0.07816 2.246732,-0.308248 3.827921,-0.432639 0.556443,-0.04377 2.251893,-0.123519 3.767667,-0.17721 2.179229,-0.07719 2.770121,-0.122122 2.823659,-0.214705 0.09081,-0.15703 0.604344,-0.149197 1.350914,0.02061 0.56173,0.127763 0.662819,0.127432 1.401971,-0.0046 0.689899,-0.123228 0.815171,-0.126162 0.935332,-0.02191 0.112543,0.09764 0.778282,0.130769 3.525409,0.175408 4.146816,0.06738 5.953956,0.165492 6.294776,0.341738 0.40695,0.210442 0.53461,0.826156 0.19372,0.93435 -0.60262,0.191265 -4.15258,0.575692 -6.742496,0.730149 -2.502167,0.149224 -9.785235,0.167948 -12.361332,0.03178 z m 10.202333,-0.07277 c 4.225435,-0.160445 8.629285,-0.589736 8.888535,-0.866461 0.10228,-0.109169 -0.0475,-0.426929 -0.26915,-0.570884 -0.23021,-0.149539 -2.56062,-0.269301 -6.989635,-0.359205 -2.030508,-0.04122 -2.838827,-0.08555 -2.899832,-0.159062 -0.06567,-0.07912 -0.247706,-0.07287 -0.81396,0.02795 -0.668137,0.118961 -0.787209,0.117879 -1.418168,-0.01289 -0.858278,-0.177877 -0.982729,-0.177604 -1.114378,0.0024 -0.09336,0.127676 -0.38866,0.151602 -2.549334,0.206562 -1.344059,0.03419 -3.053345,0.104582 -3.798411,0.15643 -1.57644,0.109702 -4.153663,0.390871 -4.276043,0.466505 -0.04636,0.02865 -0.08429,0.124706 -0.08429,0.213452 0,0.169233 0.185184,0.299095 0.625635,0.438736 0.603106,0.191209 3.900572,0.384041 8.052698,0.470914 3.461464,0.07242 4.41212,0.07035 6.646334,-0.01449 z M 86.460547,85.367727 c 0.06112,-0.02446 0.134143,-0.02145 0.162278,0.0067 0.02813,0.02813 -0.02187,0.04814 -0.111125,0.04447 -0.09863,-0.0041 -0.118695,-0.02412 -0.05115,-0.05115 z"
         id="path4024"
         inkscape:connector-curvature="0" />
      <path
         style="fill:#286104;stroke-width:0.08466666"
         d="m 93.305361,107.56707 c -0.0692,-0.0692 -0.195749,-0.39759 -0.281214,-0.72976 -0.113266,-0.44021 -0.201299,-0.62087 -0.324726,-0.66641 -0.09313,-0.0344 -0.595594,-0.0842 -1.11658,-0.11075 -0.716081,-0.0365 -0.969266,-0.0217 -1.037472,0.0605 -0.04962,0.0598 -0.19762,0.37135 -0.328881,0.69234 -0.231386,0.56585 -0.248477,0.58444 -0.561185,0.61057 -0.595133,0.0497 -0.698448,0.36695 1.519207,-4.6649 0.221217,-0.50194 0.464319,-0.94364 0.540229,-0.98154 0.07591,-0.0379 0.233266,-0.0451 0.349682,-0.016 0.184684,0.0462 0.251032,0.17672 0.520456,1.02387 0.917529,2.88499 1.426878,4.57387 1.426878,4.7312 0,0.14483 -0.05239,0.17673 -0.290286,0.17673 -0.159658,0 -0.346905,-0.0566 -0.416108,-0.12583 z m -0.775881,-2.24386 c 0.04985,-0.0807 -0.380517,-1.78635 -0.551535,-2.18592 -0.04597,-0.1074 -0.117189,-0.1745 -0.15827,-0.14911 -0.13296,0.0822 -0.956409,2.18278 -0.883854,2.2547 0.06242,0.0619 0.341446,0.0944 1.27177,0.14835 0.148593,0.009 0.293444,-0.022 0.321889,-0.068 z m 3.008138,2.28796 c -0.11893,-0.0752 -0.163853,-0.93557 -0.24882,-4.76544 l -0.007,-0.3175 H 94.6074 c -0.591868,0 -0.685649,-0.0211 -0.766691,-0.17253 -0.11446,-0.21387 -0.03723,-0.48269 0.15421,-0.53677 0.07911,-0.0223 0.843616,-0.067 1.698902,-0.0991 1.687658,-0.0635 1.700652,-0.0605 1.703304,0.39722 0.0016,0.27007 -0.122872,0.32656 -0.719248,0.32656 -0.630362,0 -0.71873,0.109 -0.670104,0.82654 0.02126,0.31375 0.0763,1.38961 0.1223,2.3908 0.0768,1.67151 0.07191,1.82898 -0.05985,1.92616 -0.169543,0.12505 -0.359392,0.13364 -0.532601,0.0241 z m 4.671992,-0.43199 c -0.315397,-0.097 -0.398147,-0.23759 -0.320932,-0.54524 0.05204,-0.20735 0.06567,-0.21075 0.634382,-0.15789 1.1271,0.10475 1.61669,-0.15767 1.61669,-0.86655 0,-0.35092 -0.0381,-0.43427 -0.32106,-0.70255 -0.24443,-0.23174 -0.46983,-0.34221 -0.94438,-0.46284 -0.71792,-0.18249 -1.281973,-0.62094 -1.448684,-1.12608 -0.156186,-0.47324 -0.07053,-1.37754 0.161316,-1.70314 0.342712,-0.48129 1.023168,-0.69422 1.831308,-0.57303 0.39131,0.0587 0.39229,0.0597 0.36643,0.37044 l -0.0259,0.3116 -0.70623,0.0423 c -0.75702,0.0454 -0.96205,0.16773 -1.082018,0.64571 -0.144751,0.57673 0.228418,0.9619 1.226938,1.2664 0.98813,0.30134 1.32655,0.48777 1.57963,0.8702 0.22728,0.34345 0.35452,1.0291 0.26049,1.40375 -0.0823,0.32774 -0.63554,0.89861 -1.04866,1.08199 -0.42634,0.18924 -1.38208,0.26708 -1.77929,0.1449 z M 85.588575,106.8481 c -0.04214,-0.0682 0.88124,-5.12326 1.024941,-5.61104 0.03551,-0.12053 0.141779,-0.14816 0.569826,-0.14816 1.043366,0 1.793097,0.3282 2.206645,0.96599 0.187141,0.28861 0.21883,0.43114 0.217242,0.97712 -0.0042,1.43348 -0.717185,2.03865 -2.256045,1.91482 -0.801063,-0.0645 -0.712043,-0.16604 -0.918936,1.04867 -0.07497,0.44014 -0.155094,0.83067 -0.178061,0.86783 -0.05953,0.0963 -0.604377,0.0838 -0.665612,-0.0152 z m 2.970647,-2.9144 c 0.293132,-0.29314 0.344007,-0.4901 0.297422,-1.15147 -0.02114,-0.30011 -0.332234,-0.71884 -0.595963,-0.80215 -0.340765,-0.10765 -0.934014,-0.18372 -1.019705,-0.13076 -0.09162,0.0566 -0.425888,1.69233 -0.425888,2.08405 0,0.22978 0.112234,0.26543 0.8763,0.27837 0.552349,0.009 0.593675,-0.004 0.867834,-0.27804 z m 9.574359,-0.78774 c -0.07636,-0.12355 -0.296188,-1.07227 -0.356431,-1.53827 -0.06344,-0.49071 0.0011,-0.59967 0.356917,-0.60216 0.219842,-0.002 0.283808,0.2969 0.307663,1.43541 0.01272,0.60716 -0.0065,0.72142 -0.125248,0.74553 -0.07715,0.0157 -0.159455,-0.003 -0.182901,-0.0405 z M 94.564482,88.029063 c -0.02374,-0.104775 -0.05304,-0.399741 -0.06511,-0.655481 l -0.02195,-0.464981 -0.391864,-0.05569 c -0.568867,-0.08085 -1.180367,-0.435983 -1.110682,-0.645038 0.04683,-0.140485 0.271006,-0.132882 1.09067,0.03699 0.630959,0.130765 0.750031,0.131847 1.418168,0.01289 0.578199,-0.102947 0.74743,-0.108114 0.81647,-0.02493 0.177389,0.213741 -0.48242,0.606582 -1.230095,0.732379 -0.148296,0.02495 -0.172424,0.10464 -0.194209,0.641426 -0.01887,0.464933 -0.05426,0.612936 -0.146554,0.612936 -0.06692,0 -0.141102,-0.08572 -0.164843,-0.1905 z"
         id="path4022"
         inkscape:connector-curvature="0" />
      <path
         style="fill:#371c02;stroke-width:0.08466666"
         d="m 90.752088,94.941084 c -3.789251,-0.197828 -6.768252,-0.578069 -10.105512,-1.289875 -0.702244,-0.149781 -0.916216,-0.291118 -0.778377,-0.514147 0.05585,-0.09036 0.291705,-0.05291 1.201024,0.190678 2.26181,0.605902 4.581024,0.948618 7.818753,1.155399 1.748111,0.111644 8.328346,0.111722 10.078224,8.4e-5 2.96384,-0.189026 5.49592,-0.550222 7.4575,-1.063793 1.62428,-0.425262 1.5259,-0.410492 1.59172,-0.238967 0.10519,0.274129 -0.19991,0.434011 -1.17667,0.616612 -2.26107,0.422698 -4.93524,0.764877 -7.704662,0.985863 -1.590433,0.12691 -7.018446,0.229299 -8.382,0.158111 z m 0.169333,-6.735736 c -4.212002,-0.09587 -7.458277,-0.287908 -8.052698,-0.476365 -0.440451,-0.13964 -0.625635,-0.269503 -0.625635,-0.438735 0,-0.08875 0.03793,-0.184801 0.08429,-0.213453 0.119877,-0.07409 2.681769,-0.354894 4.233709,-0.464052 0.721784,-0.05077 2.471791,-0.123249 3.888906,-0.161069 l 2.576573,-0.06876 0.289443,0.196421 c 0.25124,0.170497 0.492259,0.243465 1.034411,0.31317 0.09531,0.01225 0.138574,0.174586 0.173382,0.650529 0.02551,0.34881 0.04456,0.638423 0.04233,0.643584 -0.02942,0.0682 -1.205742,0.07425 -3.644715,0.01873 z m 4.038655,0.03051 c -0.07696,-0.05162 -0.102396,-0.249324 -0.08467,-0.658002 0.02203,-0.507852 0.04748,-0.587933 0.194678,-0.61268 0.489083,-0.08222 0.823354,-0.211887 1.060348,-0.411304 l 0.263715,-0.221901 2.809302,0.05702 c 4.423101,0.08977 6.753571,0.209593 6.983691,0.359075 0.22161,0.143955 0.37143,0.461715 0.26915,0.570884 -0.0891,0.09511 -0.51756,0.172595 -2.1152,0.382541 -1.65681,0.21772 -3.15981,0.328577 -5.862862,0.432427 -1.175979,0.04518 -2.423894,0.103204 -2.773144,0.12894 -0.34925,0.02574 -0.684505,0.01359 -0.745012,-0.027 z"
         id="path4020"
         inkscape:connector-curvature="0" />
    </g>
  </g>
</svg>
